<svg width="172" height="54" viewBox="0 0 172 54" fill="none" xmlns="http://www.w3.org/2000/svg">
<path d="M46.0666 7.49023C38.9711 4.96292 31.8468 2.50943 24.6937 0.12973C24.345 0.0195738 23.9784 -0.0225913 23.6138 0.00552452C23.2491 -0.0225913 22.8825 0.0195738 22.5338 0.12973C15.4131 2.52383 8.29965 4.97733 1.19338 7.49023C0.873561 7.65569 0.598204 7.89561 0.390515 8.18978C0.182826 8.48394 0.0488915 8.82373 0 9.1805C0.0485991 13.1227 -0.0755986 17.108 0.485991 20.9854C2.55955 35.3284 10.0384 46.1936 22.3772 53.7107C22.7679 53.8992 23.1961 53.9971 23.63 53.9971C24.0638 53.9971 24.492 53.8992 24.8827 53.7107C28.719 51.4084 32.2281 48.6003 35.3154 45.362V19.5867C35.3158 19.0764 35.1484 18.58 34.8391 18.1741C34.5299 17.7682 34.0957 17.4752 33.6036 17.3402L14.8983 12.2262H38.6579C39.1205 12.2262 39.5641 12.41 39.8912 12.7371C40.2183 13.0642 40.4021 13.5079 40.4021 13.9705V38.7737C43.7581 33.3622 45.9314 27.3019 46.7793 20.9908C47.3193 17.1134 47.2113 13.1281 47.2599 9.1859C47.2127 8.82789 47.0795 8.48664 46.8717 8.19133C46.6639 7.89603 46.3876 7.65547 46.0666 7.49023ZM29.4619 31.3214C29.7505 31.3214 30.0325 31.407 30.2724 31.5675C30.5123 31.728 30.6992 31.956 30.8094 32.2227C30.9195 32.4895 30.9481 32.7829 30.8914 33.0659C30.8347 33.3489 30.6953 33.6087 30.4909 33.8124C30.2864 34.0161 30.0261 34.1545 29.743 34.2101C29.4598 34.2658 29.1665 34.2362 28.9002 34.125C28.6339 34.0138 28.4065 33.8261 28.247 33.5856C28.0874 33.3451 28.0028 33.0627 28.0039 32.7741C28.0032 32.5826 28.0404 32.393 28.1135 32.216C28.1866 32.0391 28.294 31.8785 28.4296 31.7433C28.5652 31.6082 28.7263 31.5014 28.9035 31.4289C29.0807 31.3565 29.2705 31.32 29.4619 31.3214ZM60.1279 30.7166H72.2885C72.8285 30.7166 73.0877 30.4574 73.1903 29.8903L73.8598 25.8996C73.8868 25.822 73.8937 25.7389 73.8798 25.6579C73.866 25.577 73.8318 25.5009 73.7806 25.4367C73.7294 25.3726 73.6627 25.3224 73.5869 25.291C73.511 25.2595 73.4285 25.2478 73.3469 25.2569H72.9851C71.7755 25.2569 71.3651 28.9129 69.2051 28.9129H66.5052C65.6304 28.9129 65.247 28.0867 65.247 27.2388V15.2125C65.247 14.0299 66.4026 13.7221 66.4026 12.9984V12.8958C66.4026 12.588 66.1488 12.4044 65.787 12.4044H60.1171C59.7553 12.4044 59.4961 12.588 59.4961 12.8958V12.9984C59.4961 13.7221 60.5275 14.0299 60.5275 15.2125V27.8923C60.5275 29.0803 59.4961 29.3881 59.4961 30.1117V30.2413C59.5069 30.5222 59.7661 30.7004 60.1279 30.7004V30.7166ZM88.715 18.7335L85.5452 18.2691C84.8 18.1665 84.3087 18.4527 84.3087 19.0197V19.1709C83.4415 18.4305 82.3268 18.0448 81.1875 18.0909C77.9476 18.0909 75.0856 20.6938 75.0856 24.5333C75.0856 28.7563 78.0448 30.9758 81.1659 30.9758C82.3201 31.0147 83.4452 30.6088 84.3087 29.8417V30.0739C84.3062 30.1613 84.322 30.2483 84.3552 30.3291C84.3883 30.41 84.438 30.4831 84.5011 30.5436C84.5641 30.6041 84.6392 30.6508 84.7214 30.6806C84.8035 30.7104 84.891 30.7226 84.9782 30.7166H88.661C88.9958 30.7166 89.228 30.5384 89.228 30.2305V30.1279C89.228 29.4043 88.1966 29.0965 88.1966 27.9085V21.8656C88.1966 20.4454 89.3306 20.0835 89.3306 19.5435V19.4409C89.338 19.3529 89.3279 19.2643 89.3009 19.1803C89.2739 19.0962 89.2305 19.0183 89.1733 18.951C89.1161 18.8838 89.0462 18.8285 88.9675 18.7884C88.8888 18.7483 88.803 18.7241 88.715 18.7173V18.7335ZM83.8551 27.5466C83.8551 28.9399 83.0829 29.7391 82.2081 29.7067C80.2749 29.6311 79.4218 24.6845 79.5081 22.519C79.5837 20.4562 80.2803 19.3491 81.5439 19.3491C82.7265 19.3491 83.8605 20.6344 83.8605 22.5892L83.8551 27.5466ZM104.504 23.4479C104.196 19.3545 101.804 18.0909 99.5796 18.0909C97.8786 18.0909 96.5934 18.7875 95.8968 20.0241V18.7983C95.8968 18.2583 95.562 17.8424 94.9195 18.1773L91.3015 19.9809C90.9397 20.1645 90.6805 20.3157 90.6805 20.629V20.7046C90.6805 21.4498 92.0467 21.6064 92.0467 22.8647V27.9409C92.0467 29.1289 90.9127 29.4367 90.9127 30.1819V30.2413C90.9127 30.5546 91.1449 30.7328 91.5283 30.7328H97.0956C97.4844 30.7328 97.7166 30.5546 97.7166 30.2413V30.1333C97.7166 29.3881 96.5826 29.0803 96.5826 27.8923V22.276C96.5826 20.7802 97.1226 19.7757 98.2566 19.7757C99.3906 19.7757 99.8766 20.7316 100.033 23.2805L100.292 27.8923C100.368 29.0803 99.3636 29.3881 99.3636 30.1333V30.2413C99.3636 30.5546 99.5958 30.7328 99.9846 30.7328H105.136C105.498 30.7328 105.752 30.5546 105.752 30.2413V30.1333C105.752 29.3881 104.904 29.0803 104.828 27.8923L104.504 23.4479ZM119.878 11.9184C119.878 11.2218 119.489 11.0652 118.744 11.2974L114.721 12.507C114.563 12.5408 114.421 12.624 114.314 12.7445C114.207 12.8649 114.142 13.0163 114.127 13.1767V13.2577C114.127 14.0029 115.493 14.1595 115.493 15.3691V18.7983C114.706 18.2998 113.789 18.0478 112.858 18.0747C109.618 18.0747 106.751 20.6776 106.751 24.5171C106.751 28.7401 109.715 30.9596 112.831 30.9596C113.985 30.9947 115.108 30.5892 115.974 29.8255V30.0577C115.97 30.1451 115.984 30.2323 116.016 30.3136C116.049 30.3949 116.098 30.4684 116.161 30.5292C116.223 30.59 116.298 30.6367 116.381 30.6662C116.463 30.6957 116.551 30.7074 116.638 30.7004H120.326C120.682 30.7004 120.915 30.5222 120.915 30.2143V30.1117C120.915 29.3881 119.889 29.0803 119.889 27.8923L119.878 11.9184ZM115.498 27.5412C115.498 28.9345 114.726 29.7337 113.879 29.7013C111.945 29.6257 111.098 24.6791 111.179 22.5136C111.254 20.4508 111.951 19.3437 113.214 19.3437C114.397 19.3437 115.531 20.9152 115.531 22.5838L115.498 27.5412ZM127.875 11.8806C127.875 11.4162 127.411 10.9788 126.692 11.3406L122.799 13.2469C122.464 13.4251 122.259 13.5547 122.259 13.8409V13.9435C122.259 14.5861 123.264 14.9209 123.264 16.1306V27.8923C123.264 29.0803 122.259 29.3611 122.259 30.1117V30.2413C122.259 30.5492 122.491 30.7274 122.853 30.7274H128.42C128.782 30.7274 129.036 30.5492 129.036 30.2413V30.1387C129.036 29.3881 127.902 29.1073 127.902 27.9193L127.875 11.8806ZM137.001 18.0909C133.318 18.0909 130.046 20.6938 130.046 24.5063C130.046 28.3189 133.243 30.9866 137.184 30.9866C140.964 30.9866 144.064 28.3297 144.064 24.5711C144.064 20.8126 140.867 18.0747 137.001 18.0747V18.0909ZM137.724 29.7013C135.635 29.7013 134.603 24.6521 134.603 22.5622C134.603 20.4724 135.046 19.3221 136.283 19.3221C138.318 19.3221 139.371 24.5009 139.371 26.5098C139.371 28.5187 138.934 29.7013 137.724 29.7013ZM153.957 18.0801C153.163 18.0392 152.379 18.2692 151.734 18.7323C151.088 19.1955 150.619 19.8642 150.403 20.629V18.7443C150.403 18.2043 150.144 17.8694 149.475 18.1773L145.841 19.8783C145.452 20.0835 145.247 20.3157 145.247 20.6236V20.7046C145.247 21.4498 146.483 21.5524 146.483 22.762V27.8923C146.483 29.0803 145.452 29.3881 145.452 30.1117V30.2413C145.452 30.5492 145.711 30.7274 146.073 30.7274H151.613C151.975 30.7274 152.229 30.5492 152.229 30.2413V30.1387C152.229 29.4151 150.868 29.1073 150.868 27.9193V23.1023C150.868 21.9682 150.992 20.6236 151.818 20.6236C153.109 20.6236 152.05 23.0483 154.394 23.0483C155.89 23.0483 156.381 21.9142 156.381 20.6236C156.381 19.1817 155.479 18.0747 153.957 18.0747V18.0801ZM170.286 27.8977V11.9184C170.286 11.2218 169.902 11.0652 169.152 11.2974L165.134 12.507C164.977 12.5408 164.834 12.624 164.728 12.7445C164.621 12.8649 164.555 13.0163 164.54 13.1767V13.2577C164.54 14.0029 165.907 14.1595 165.907 15.3691V18.7983C165.115 18.2966 164.192 18.0445 163.255 18.0747C160.015 18.0747 157.148 20.6776 157.148 24.5171C157.148 28.7401 160.112 30.9596 163.228 30.9596C164.382 30.9947 165.506 30.5892 166.371 29.8255V30.0577C166.367 30.1456 166.381 30.2333 166.414 30.315C166.447 30.3967 166.496 30.4705 166.56 30.5314C166.623 30.5922 166.699 30.6388 166.782 30.668C166.865 30.6971 166.953 30.7082 167.041 30.7004H170.729C171.085 30.7004 171.317 30.5222 171.317 30.2143V30.1117C171.317 29.3881 170.286 29.0803 170.286 27.8923V27.8977ZM165.907 27.5412C165.907 28.9345 165.134 29.7337 164.26 29.7013C162.326 29.6257 161.473 24.6791 161.56 22.5136C161.635 20.4508 162.332 19.3437 163.595 19.3437C164.859 19.3437 165.912 20.9152 165.912 22.5838L165.907 27.5412ZM58.8589 38.6441H62.0017V46.658H64.059V38.6441H67.218V36.862H58.8589V38.6441ZM69.9503 46.658H76.603V44.8543H71.9591V42.5214H76.1764V40.7826H71.9591V38.6225H76.603V36.8404H69.9503V46.658ZM83.7741 38.5199C84.2403 38.4965 84.7005 38.6324 85.0793 38.9052C85.4581 39.178 85.7328 39.5716 85.8584 40.0211H87.8834C87.739 39.0551 87.2359 38.1789 86.4742 37.5674C85.7126 36.9558 84.7485 36.6538 83.7741 36.7216C81.1551 36.7216 79.2057 38.7791 79.2057 41.7816C79.2057 44.7841 81.1551 46.8362 83.7741 46.8362C84.7515 46.9003 85.7171 46.5926 86.4772 45.9746C87.2373 45.3567 87.7357 44.4743 87.8726 43.5043H85.8584C85.7363 43.955 85.4645 44.3508 85.0876 44.6265C84.7108 44.9023 84.2514 45.0417 83.7849 45.0217C82.2189 45.0217 81.2955 43.6339 81.2955 41.7816C81.2955 39.9293 82.2081 38.5199 83.7741 38.5199ZM97.3494 40.7556H92.9107V36.862H90.8695V46.658H92.9107V42.543H97.3494V46.658H99.3906V36.862H97.3494V40.7556Z" fill="#0073E6"/>
</svg>
